inDegrees=no
num_controls=7
num_derivatives=13
num_iterations=159
num_multipliers=7
num_parameters=0
num_slacks=7
num_states=26
objective=6.171368
objective_accelerations=0.546043
objective_balance=0.018833
objective_effort=0.494158
objective_height=5.016086
objective_ligament=0.096247
solver_duration=1352.289226
status=Solve_Succeeded
success=true
DataType=double
version=3
OpenSimVersion=4.4-2022-07-23-0e9fedc
endheader
time	/jointset/ground_pelvis/pelvis_tilt/value	/jointset/ground_pelvis/pelvis_tx/value	/jointset/ground_pelvis/pelvis_ty/value	/jointset/hip_r/hip_flexion_r/value	/jointset/hip_r/hip_adduction_r/value	/jointset/hip_r/hip_rotation_r/value	/jointset/back/lumbar_extension/value	/jointset/patellofemoral_r/patellar_flexion_r/value	/jointset/knee_r/knee_flexion_r/value	/jointset/knee_r/knee_adduction_r/value	/jointset/knee_r/knee_rotation_r/value	/jointset/ankle_r/ankle_angle_r/value	/jointset/subtalar_r/subtalar_angle_r/value	/jointset/ground_pelvis/pelvis_tilt/speed	/jointset/ground_pelvis/pelvis_tx/speed	/jointset/ground_pelvis/pelvis_ty/speed	/jointset/hip_r/hip_flexion_r/speed	/jointset/hip_r/hip_adduction_r/speed	/jointset/hip_r/hip_rotation_r/speed	/jointset/back/lumbar_extension/speed	/jointset/patellofemoral_r/patellar_flexion_r/speed	/jointset/knee_r/knee_flexion_r/speed	/jointset/knee_r/knee_adduction_r/speed	/jointset/knee_r/knee_rotation_r/speed	/jointset/ankle_r/ankle_angle_r/speed	/jointset/subtalar_r/subtalar_angle_r/speed	/forceset/tau_hip_flexion_r	/forceset/tau_hip_adduction_r	/forceset/tau_hip_rotation_r	/forceset/tau_knee_flexion_r	/forceset/tau_ankle_angle_r	/forceset/tau_subtalar_angle_r	/forceset/tau_lumbar_extension	lambda_cid13_p0	lambda_cid14_p0	lambda_cid14_p1	lambda_cid14_p2	lambda_cid14_p3	lambda_cid14_p4	lambda_cid14_p5	/jointset/ground_pelvis/pelvis_tilt/accel	/jointset/ground_pelvis/pelvis_tx/accel	/jointset/ground_pelvis/pelvis_ty/accel	/jointset/hip_r/hip_flexion_r/accel	/jointset/hip_r/hip_adduction_r/accel	/jointset/hip_r/hip_rotation_r/accel	/jointset/back/lumbar_extension/accel	/jointset/patellofemoral_r/patellar_flexion_r/accel	/jointset/knee_r/knee_flexion_r/accel	/jointset/knee_r/knee_adduction_r/accel	/jointset/knee_r/knee_rotation_r/accel	/jointset/ankle_r/ankle_angle_r/accel	/jointset/subtalar_r/subtalar_angle_r/accel	gamma_cid13_p0	gamma_cid14_p0	gamma_cid14_p1	gamma_cid14_p2	gamma_cid14_p3	gamma_cid14_p4	gamma_cid14_p5
1	-0.2464748261197689	0.008115402401114255	0.6906339399052037	1.328599651583677	-0.2472205557155889	0.01382440843576169	-0.4363319750399934	1.323497243746307	1.323497243746228	0.02504786470467384	0.1745284315626434	0.4354023228524205	0.08284575040469191	-0.001329464733743827	0.002949726993805857	0.01416915228068318	-0.03665997312236657	0.0003425493072422868	-0.01262305182999705	0.000190510211169431	-0.04628858455590181	-0.04628858455590587	-0.0006479119377943701	-1.523591962989558e-05	-0.01010909563701253	-0.00269840513602294	-0.2447255768332655	0.01379806873434333	0.01879131442659216	-0.5011614705262772	-0.00333265723677293	0.002469043474378432	0.2754169601788177	-0.04530451788899463	-50.02896471845258	-7.817441611336839	1.854816827964708	20.5757288056024	-793.9106795666167	62.85320988654703	1.090188426404124	-0.005287388986644157	1.635448892105157	-4.874317998227412	0.02440013137887902	-1.199600150863768	0.03252837499372156	-5.173481110067436	-5.173481110067369	0.1666442463944812	0.007358396339329688	-1.625147912552145	-0.5053290168489829	7.140281430831168e-10	-4.285822353899326e-09	6.489020000067509e-09	5.723088480128276e-09	9.0863469980825e-09	-5.047757854888045e-09	4.674683321027512e-09
1.01	-0.2464347161810144	0.00814485969058925	0.6908572620144027	1.327990331735837	-0.2472158121547442	0.01363870263510236	-0.4363258780344166	1.322775883228495	1.322775883228424	0.02504998356087051	0.1745282687835875	0.4352203340301966	0.08279378814226473	0.009299849592592897	0.002965852756110026	0.03049393084263254	-0.08518819419812905	0.000606112605378288	-0.02451741949816391	0.001216888209733041	-0.09799286702087401	-0.09799286702087996	0.001075027726218246	-1.765522071241638e-05	-0.02626100163409548	-0.007683028888263422	-0.2457637619246285	0.01386641650211561	0.01879893403878421	-0.5006341697987922	-0.003728659285866478	0.002547708185658478	0.2765173147226649	-0.0452971930580396	-50.17086761299092	-7.796557712718493	1.838276155395846	20.34885839964289	-794.4927976704355	62.84758216968383	1.041563179069785	0.008682832773467663	1.630790079627191	-4.83970338793807	0.02732931456285005	-1.184252482171082	0.1658920949919616	-5.170304210534836	-5.170304210535038	0.1756223544758529	-0.004089709647514587	-1.606063351038664	-0.4933725286550243	9.653024736055905e-10	-4.953540550444874e-09	1.571342590019706e-08	9.44966649202088e-09	9.967985292371665e-09	-7.23392327126098e-09	1.283241025918451e-08
1.02	-0.2462898610503347	0.00817520229247568	0.6912437914574988	1.326896203832111	-0.2472084339838367	0.01333407367632266	-0.4363038773317157	1.321537199406869	1.321537199406795	0.0250694325192557	0.1745280722882666	0.4348776558664505	0.08269231094746145	0.01961957365174375	0.003126789476093064	0.04681061906013116	-0.1336215843013692	0.0008694713248188435	-0.03640768346147109	0.003371249516407174	-0.1497532453187558	-0.1497532453187638	0.002818108513095286	-2.197917441413353e-05	-0.04224696394126878	-0.01260139161024355	-0.2468019470159156	0.01393476426985541	0.01880655365112922	-0.5001068690713023	-0.004124661334984156	0.002626372896872669	0.2776176692665836	-0.04529632776731352	-50.32424684035378	-7.775668025636776	1.819432850783331	20.15775789629421	-795.2475582173935	62.8504599024691	1.028270372966765	0.02367480254924575	1.63383082321503	-4.855351803722988	0.02435921563985053	-1.198779409891736	0.2581250366143441	-5.184700276649394	-5.184700276649356	0.170672470967353	0.006977465815295504	-1.591959174570016	-0.492076810796732	1.12624495615004e-09	-4.184020712144662e-09	2.614819998047111e-08	1.20504448331478e-08	7.584761948830338e-09	-9.178988225634341e-09	2.269263231551211e-08
1.03	-0.2460431277264689	0.00820785535705143	0.691793366634304	1.325318210152722	-0.2471983977695967	0.01291062934173846	-0.4362551933401092	1.319780814429869	1.319780814429815	0.02510639947906018	0.1745277989195373	0.4343759213903348	0.08254203060690926	0.02969642623469365	0.003425814758107153	0.06309474939854402	-0.181959909777663	0.001139783479659638	-0.04827282238395451	0.006506547550980781	-0.2015146164763552	-0.2015146164763567	0.004579055576638477	-3.469904097599697e-05	-0.05807500820988835	-0.01743971629055348	-0.2473261974716911	0.01390065730187956	0.01882643410455597	-0.4992479939176853	-0.004230195775402189	0.002699181548180031	0.2782436883621959	-0.04529759891990297	-50.34521610021617	-7.72686992109058	1.787838600168147	19.91309555189601	-795.3328795952024	62.86304724301491	0.9927936615438999	0.03631610826185176	1.624251867762728	-4.820486224129285	0.02867276125882097	-1.179128850591931	0.3623819974557682	-5.1704857528717	-5.17048575287065	0.1793756439384845	-0.005692458171584152	-1.574490507110394	-0.4774585917892573	1.286265685143694e-09	-3.399835179611321e-09	3.659532475646093e-08	1.463973542253221e-08	5.168223690617252e-09	-1.112159297121178e-08	3.257022677100473e-08
1.04	-0.2456965456846595	0.008244158617895635	0.6925054926602152	1.323257350557657	-0.2471855973246622	0.01236878407453153	-0.4361709264059954	1.317507089697783	1.317507089697743	0.02516108987341583	0.1745273392031726	0.4337166537807123	0.082343817360521	0.03958931724099575	0.003856828729784093	0.0793207888813485	-0.2301947674358081	0.00142231746863176	-0.06008786999307276	0.01048783800858974	-0.2532211963362141	-0.2532211963362096	0.006362795435824953	-5.924871872092715e-05	-0.07375359064260478	-0.02218797277651275	-0.2478504479274578	0.01386655033386979	0.01884631455812452	-0.4983891187640683	-0.004335730215837831	0.002771990199421669	0.2788697074578136	-0.04530487162211697	-50.3776539153605	-7.678194415276451	1.754110385551099	19.7018404384599	-795.592138994514	62.88396927437277	0.9914780576370124	0.05007254048195282	1.622212652093372	-4.834658240093311	0.02680358246611421	-1.188761147218676	0.4273235212211866	-5.173742017101326	-5.173742017101394	0.1752310300960229	0.004611503578633059	-1.562066807389169	-0.4740631719265081	1.401608954644029e-09	-3.222087833275809e-09	4.641053556998413e-08	1.65908023328842e-08	3.980854016563398e-09	-1.33842013707528e-08	4.161387990928467e-08
1.05	-0.2452520028730804	0.008285441096036409	0.6933795066775188	1.320714848681439	-0.2471698850413579	0.01170907260540386	-0.4360425817114523	1.314716683294583	1.314716683294533	0.02523370558998321	0.1745265534770026	0.4329013287765824	0.08209862211142306	0.04928193124338685	0.004422711950647978	0.09546392719611346	-0.2782676533151282	0.001724382189997437	-0.07184049927829841	0.01532835722582008	-0.304839787446777	-0.3048397874467779	0.008164188159661257	-0.0001020887715633173	-0.08928837558583338	-0.02683176481019267	-0.248069510624591	0.01380384265464809	0.01887750519263545	-0.4972227306567431	-0.004214565179394035	0.002818340540642239	0.2792464667969529	-0.04531371127685782	-50.30974436931544	-7.62197531848332	1.717506751437899	19.41600509040929	-795.3868831758271	62.8767576128668	0.9525567867626243	0.06330352594608091	1.607648159410354	-4.78791013242551	0.03254928143870528	-1.166428232129352	0.5345045704008108	-5.15287343375321	-5.152873433753876	0.1831755515716728	-0.009353800421463332	-1.545731642072212	-0.4566291314173857	1.515556053535199e-09	-3.063291680258975e-09	5.620599907218023e-08	1.852192475326643e-08	2.831895860764513e-09	-1.565680988448018e-08	5.063147238140171e-08
1.06	-0.2447116531784361	0.008333073868998732	0.6944144088256188	1.317692756672313	-0.2471510238379689	0.01093225196086315	-0.4358614141350424	1.311410699825134	1.311410699825069	0.025324451665343	0.1745252149421953	0.4319313464621641	0.08180757055951821	0.05875069385463928	0.005126887694094365	0.1114984150406312	-0.3261127940173955	0.002052101490065127	-0.08350970508174096	0.02105241438008693	-0.3563366095861174	-0.3563366095861235	0.009988867205282533	-0.0001698104526322275	-0.1046850527003605	-0.03135923333702371	-0.2482885733217012	0.01374113497538951	0.01890869582727022	-0.4960563425494175	-0.004093400142970208	0.002864690881791727	0.2796232261361117	-0.045327779769058	-50.25329988097911	-7.566021887613242	1.678956069718123	19.1613734011484	-795.3567081494515	62.87785120167665	0.9467077794090684	0.07773104499861266	1.600482558043937	-4.789109204682799	0.03193449820645623	-1.172076450862097	0.6040311086283848	-5.149388222856842	-5.149388222856827	0.1798882944530551	-0.0003648220665816589	-1.534445241648628	-0.4507984705567227	2.000682783122049e-09	-2.62369640036373e-09	6.106799600917897e-08	2.231540062280573e-08	2.011777746202108e-09	-1.757334599646527e-08	5.554269374021197e-08
1.07	-0.244077642247763	0.008388445324211615	0.6956090496774766	1.314193380801363	-0.2471287704805867	0.01003915895216191	-0.4356187657300877	1.307590450014312	1.307590450014539	0.0254335740413111	0.1745231435406923	0.4308080572468875	0.08147180412017099	0.06802057272572011	0.005971107235373835	0.1274048473782119	-0.3737180145741041	0.002404065409715006	-0.09509138082230725	0.0276109416013704	-0.4076827830443407	-0.4076827830443336	0.0118396269693891	-0.0002483485594510383	-0.1199516299894026	-0.03577225920729547	-0.2481561418475735	0.01359795393203371	0.01895083969219435	-0.4945962065373283	-0.003744287618340208	0.002909331859367275	0.2796941518556227	-0.0467420612467174	-50.09378672971739	-7.486222581314216	1.629131399627385	18.84148018331254	-794.837020659121	62.88816384537461	0.9124909250499714	0.09132322269586482	1.581983457728003	-4.739573116962176	0.03765810654592099	-1.148588763503192	0.7018147771783053	-5.12264698543335	-5.122646985431281	0.1882796067923738	-0.01217124117877512	-1.519592651483949	-0.4332717020681677	2.50555311008633e-09	-2.169164996698354e-09	6.566757451185867e-08	2.620793784602361e-08	1.209151123194836e-09	-1.947094208708109e-08	6.023549110363355e-08
1.08	-0.2433518599315627	0.0084529701376393	0.6969620068299333	1.310219283797687	-0.2471028313304879	0.009030774060510772	-0.435306521803257	1.303257655453283	1.303257655453797	0.02556132597275448	0.1745201721709161	0.4295327365229307	0.08109256401075596	0.07710497096045825	0.00695755933705513	0.1431616751603684	-0.4210570205626868	0.002789260037456154	-0.1065680816768671	0.0349715187546166	-0.4588455596276946	-0.4588455596276746	0.01371477830962646	-0.000349804113834395	-0.1350913544365204	-0.0400539673498027	-0.2480237103734331	0.01345477288863912	0.01899298355721843	-0.4931360705252394	-0.003395175093729237	0.002953972836869489	0.2797650775751436	-0.05334845104294837	-49.94535476979298	-7.406144251466181	1.576727456805582	18.5490935905156	-794.4878688745506	62.90848557022279	0.9096116521403149	0.1061775570791538	1.570561646959093	-4.735866291057689	0.03858063982461814	-1.151081473660871	0.7644410950208547	-5.112708847882935	-5.112708847882998	0.1847666096792633	-0.004948311579330076	-1.50907467326347	-0.4245349250038499	2.868114396858951e-09	-1.949569554124308e-09	6.699128070524785e-08	2.855326174757543e-08	1.028188388918587e-09	-2.118814838540253e-08	6.137209186639419e-08
